<?xml version="1.0" standalone="no"?>
<!DOCTYPE svg PUBLIC "-//W3C//DTD SVG 20010904//EN"
 "http://www.w3.org/TR/2001/REC-SVG-20010904/DTD/svg10.dtd">
<svg version="1.0" xmlns="http://www.w3.org/2000/svg"
 width="256.000000pt" height="256.000000pt" viewBox="0 0 256.000000 256.000000"
 preserveAspectRatio="xMidYMid meet">
<metadata>
Created by potrace 1.11, written by Peter Selinger 2001-2013
</metadata>
<g transform="translate(0.000000,256.000000) scale(0.100000,-0.100000)"
fill="#000000" stroke="none">
<path d="M424 2082 l-161 -2 -88 -412 c-138 -651 -136 -637 -123 -806 l11
-142 47 0 46 0 13 75 12 75 120 0 119 0 0 -75 0 -75 120 0 120 0 0 29 c0 15 3
49 6 75 l7 47 121 -3 121 -3 -4 -73 -3 -72 126 0 126 0 0 75 0 75 120 0 120 0
0 -75 0 -75 126 0 127 0 -7 75 -7 75 124 0 124 0 7 -46 c3 -26 6 -60 6 -75 l0
-29 120 0 120 0 0 75 0 75 119 0 120 0 12 -75 13 -75 46 0 47 0 11 142 c13
169 15 155 -123 806 l-88 412 -156 0 c-86 0 -471 1 -856 3 -385 1 -772 1 -861
-1z m1256 -1120 l0 -39 -107 -6 c-136 -9 -525 -9 -670 0 l-113 6 0 39 0 38
445 0 445 0 0 -38z"/>
</g>
</svg>
